Coordinates
version=1
nRows=8
nColumns=33
inDegrees=yes

Units are S.I. units (second, meters, Newtons, ...)
Angles are in degrees.

endheader
time	ground_thorax_rot_x	ground_thorax_rot_y	ground_thorax_rot_z	ground_thorax_tx	ground_thorax_ty	ground_thorax_tz	clav_prot_r	clav_elev_r	scapula_abduction_r	scapula_elevation_r	scapula_upward_rot_r	scapula_winging_r	shoulder_elv_r	plane_of_elev_r	axial_rot_r	elbow_flexion_r	pro_sup_r	wrist_flex_r	wrist_dev_r	clav_prot_l	clav_elev_l	scapula_abduction_l	scapula_elevation_l	scapula_upward_rot_l	scapula_winging_l	shoulder_elv_l	plane_of_elev_l	axial_rot_l	elbow_flexion_l	pro_sup_l	wrist_flex_l	wrist_dev_l
      5.55000000	    -11.55592605	    -41.42743415	     66.81539129	     63.97330688	    797.17048541	    -44.01856292	     29.28637880	    -45.00000000	     42.29584771	    -45.00000000	    -45.00000000	    255.38594515	   3312.33875535	     19.25729897	   -140.81732162	   2879.51450642	    172.18286114	     12.05841616	     14.23061412	     -4.11119136	     37.00186504	    -30.52361826	    -45.00000000	    -26.22689014	   5138.07426552	  -3348.23777017	    141.53287103	    179.99999979	   2877.07149606	   -315.39158739	     14.80516568	    -20.38552369
      5.56000000	    -11.22959395	    -41.34804982	     67.19963173	     66.07417176	    796.07894454	    -43.87095917	     29.43865425	    -45.00000000	     42.29060166	    -45.00000000	    -45.00000000	    255.10662689	   3312.20613312	     19.45984927	   -140.32058267	   2879.68923834	    172.46384588	     12.12772876	     14.10962029	     -4.24404337	     37.13739413	    -30.36267439	    -45.00000000	    -26.61074379	   5138.00559678	  -3348.40944400	    141.35971236	    179.99999979	   2877.03427622	   -315.40112946	     14.98243206	    -20.52252883
      5.57000000	    -10.83571762	    -41.38030698	     67.66686473	     68.08065299	    794.99706079	    -43.72130911	     29.45427962	    -45.00000000	     42.35038820	    -45.00000000	    -45.00000000	    255.14680113	   3312.21516075	     19.31202382	   -139.75558393	   2879.69773109	    172.78498785	     12.05956810	     14.11874407	     -4.20372638	     37.02299942	    -30.17034099	    -45.00000000	    -26.90732211	   5137.82166400	  -3348.52117763	    141.41710859	    179.99999979	   2876.94610920	   -315.36306144	     14.94647135	    -20.38044419
      5.58000000	    -10.45641690	    -41.36330525	     68.18720209	     69.99498167	    793.92234637	    -43.57316066	     29.47643510	    -45.00000000	     42.31240531	    -45.00000000	    -45.00000000	    255.08237469	   3312.22228935	     19.22141470	   -139.18895818	   2879.78147998	    173.03414309	     12.03047060	     14.00509808	     -4.25734153	     36.86199887	    -29.93833602	    -45.00000000	    -27.37507741	   5137.59927751	  -3348.59804703	    141.35473224	    179.99999979	   2876.93500407	   -315.33544055	     14.86474855	    -20.22449571
      5.59000000	    -10.06668699	    -41.32685219	     68.74683556	     71.81886554	    792.85486973	    -43.43067219	     29.51987999	    -45.00000000	     42.23949061	    -45.00000000	    -45.00000000	    254.96859608	   3312.26441129	     19.16379123	   -138.55211575	   2879.87964274	    173.24371664	     11.98741344	     13.89188814	     -4.28023825	     36.73992417	    -29.68189139	    -45.00000000	    -27.83340369	   5137.36670199	  -3348.63566736	    141.27575273	    179.99999979	   2876.93297119	   -315.31597274	     14.81887460	    -20.12201917
      5.60000000	     -9.70073679	    -41.29264811	     69.27967314	     73.55384614	    791.79569964	    -43.29498325	     29.56402633	    -45.00000000	     42.17454806	    -45.00000000	    -45.00000000	    254.85260415	   3312.27091142	     19.11288092	   -137.88059141	   2879.98450439	    173.41536354	     11.93777930	     13.81059030	     -4.33219186	     36.60856163	    -29.44922883	    -45.00000000	    -28.30265193	   5137.16264358	  -3348.67341095	    141.20165729	    179.99999979	   2876.91430148	   -315.29718592	     14.78460807	    -20.03254987
      5.61000000	     -9.38406529	    -41.29092564	     69.79511854	     75.20561235	    790.74585823	    -43.16727860	     29.60056641	    -45.00000000	     42.07623001	    -45.00000000	    -45.00000000	    254.76499371	   3312.26247450	     19.02601173	   -137.18459916	   2880.11285269	    173.55446512	     11.86370177	     13.69277396	     -4.36635721	     36.47128461	    -29.20809333	    -45.00000000	    -28.75282664	   5136.93247927	  -3348.58690355	    141.12019867	    179.99999979	   2876.87667295	   -315.27892833	     14.72107740	    -19.90050085
      5.62000000	     -9.03807016	    -41.25232737	     70.15616799	     76.77619640	    789.71042466	    -43.04828607	     29.62954402	    -45.00000000	     42.21651309	    -45.00000000	    -45.00000000	    254.66600298	   3312.23265656	     18.97603477	   -136.44285682	   2880.10977566	    173.65316243	     11.84557537	     13.70571250	     -4.42334211	     36.39664111	    -29.05116165	    -45.00000000	    -29.24557771	   5136.74600732	  -3348.71263542	    141.11092290	    179.99999979	   2876.81747129	   -315.27490914	     14.76574255	    -19.88795668
